<svg xmlns="http://www.w3.org/2000/svg" xmlns:xlink="http://www.w3.org/1999/xlink" width="1024" zoomAndPan="magnify" viewBox="0 0 768 767.999994" height="1024" preserveAspectRatio="xMidYMid meet" version="1.0"><defs><clipPath id="2193ecab98"><path d="M 1 27.050781 L 392.734375 27.050781 L 392.734375 740.949219 L 1 740.949219 Z M 1 27.050781 " clip-rule="nonzero"/></clipPath><clipPath id="c63662a4ef"><path d="M 0 26.152344 L 393.632812 26.152344 L 393.632812 741.652344 L 0 741.652344 Z M 0 26.152344 " clip-rule="nonzero"/></clipPath><clipPath id="24ba7bceb8"><path d="M 391 217 L 746 217 L 746 572 L 391 572 Z M 391 217 " clip-rule="nonzero"/></clipPath><clipPath id="823a623192"><path d="M 625.121094 125.601562 L 842.773438 403.835938 L 537.953125 642.28125 L 320.304688 364.046875 Z M 625.121094 125.601562 " clip-rule="nonzero"/></clipPath><clipPath id="a6bd8bce17"><path d="M 625.121094 125.601562 L 842.773438 403.835938 L 537.953125 642.28125 L 320.304688 364.046875 Z M 625.121094 125.601562 " clip-rule="nonzero"/></clipPath><clipPath id="05ccf085c8"><path d="M 625.121094 125.601562 L 842.773438 403.835938 L 537.953125 642.28125 L 320.304688 364.046875 Z M 625.121094 125.601562 " clip-rule="nonzero"/></clipPath><clipPath id="f650c48e1c"><path d="M 399 225 L 738 225 L 738 564 L 399 564 Z M 399 225 " clip-rule="nonzero"/></clipPath><clipPath id="e7ad715293"><path d="M 625.121094 125.601562 L 842.773438 403.835938 L 537.953125 642.28125 L 320.304688 364.046875 Z M 625.121094 125.601562 " clip-rule="nonzero"/></clipPath><clipPath id="1849e6b07d"><path d="M 625.121094 125.601562 L 842.773438 403.835938 L 537.953125 642.28125 L 320.304688 364.046875 Z M 625.121094 125.601562 " clip-rule="nonzero"/></clipPath><clipPath id="6e2f290fe5"><path d="M 625.121094 125.601562 L 842.773438 403.835938 L 537.953125 642.28125 L 320.304688 364.046875 Z M 625.121094 125.601562 " clip-rule="nonzero"/></clipPath><clipPath id="3865ec5861"><path d="M 410 236 L 627 236 L 627 423 L 410 423 Z M 410 236 " clip-rule="nonzero"/></clipPath><clipPath id="79a115f830"><path d="M 625.121094 125.601562 L 842.773438 403.835938 L 537.953125 642.28125 L 320.304688 364.046875 Z M 625.121094 125.601562 " clip-rule="nonzero"/></clipPath><clipPath id="5a2ec7ad84"><path d="M 625.121094 125.601562 L 842.773438 403.835938 L 537.953125 642.28125 L 320.304688 364.046875 Z M 625.121094 125.601562 " clip-rule="nonzero"/></clipPath><clipPath id="7d48945536"><path d="M 625.121094 125.601562 L 842.773438 403.835938 L 537.953125 642.28125 L 320.304688 364.046875 Z M 625.121094 125.601562 " clip-rule="nonzero"/></clipPath><clipPath id="81f749548f"><path d="M 438 302 L 682 302 L 682 533 L 438 533 Z M 438 302 " clip-rule="nonzero"/></clipPath><clipPath id="a6a935de0d"><path d="M 625.121094 125.601562 L 842.773438 403.835938 L 537.953125 642.28125 L 320.304688 364.046875 Z M 625.121094 125.601562 " clip-rule="nonzero"/></clipPath><clipPath id="02e6f4199a"><path d="M 625.121094 125.601562 L 842.773438 403.835938 L 537.953125 642.28125 L 320.304688 364.046875 Z M 625.121094 125.601562 " clip-rule="nonzero"/></clipPath><clipPath id="c8f3644b88"><path d="M 625.121094 125.601562 L 842.773438 403.835938 L 537.953125 642.28125 L 320.304688 364.046875 Z M 625.121094 125.601562 " clip-rule="nonzero"/></clipPath><clipPath id="7385a9fb62"><path d="M 704 257 L 738 257 L 738 360 L 704 360 Z M 704 257 " clip-rule="nonzero"/></clipPath><clipPath id="227e7a2925"><path d="M 625.121094 125.601562 L 842.773438 403.835938 L 537.953125 642.28125 L 320.304688 364.046875 Z M 625.121094 125.601562 " clip-rule="nonzero"/></clipPath><clipPath id="895deed502"><path d="M 625.121094 125.601562 L 842.773438 403.835938 L 537.953125 642.28125 L 320.304688 364.046875 Z M 625.121094 125.601562 " clip-rule="nonzero"/></clipPath><clipPath id="521fbc439e"><path d="M 625.121094 125.601562 L 842.773438 403.835938 L 537.953125 642.28125 L 320.304688 364.046875 Z M 625.121094 125.601562 " clip-rule="nonzero"/></clipPath><clipPath id="90511de332"><path d="M 459 225 L 691 225 L 691 287 L 459 287 Z M 459 225 " clip-rule="nonzero"/></clipPath><clipPath id="ad350d0e78"><path d="M 625.121094 125.601562 L 842.773438 403.835938 L 537.953125 642.28125 L 320.304688 364.046875 Z M 625.121094 125.601562 " clip-rule="nonzero"/></clipPath><clipPath id="a651ea5299"><path d="M 625.121094 125.601562 L 842.773438 403.835938 L 537.953125 642.28125 L 320.304688 364.046875 Z M 625.121094 125.601562 " clip-rule="nonzero"/></clipPath><clipPath id="f6c3f46ee2"><path d="M 625.121094 125.601562 L 842.773438 403.835938 L 537.953125 642.28125 L 320.304688 364.046875 Z M 625.121094 125.601562 " clip-rule="nonzero"/></clipPath><clipPath id="c18aaa9fc1"><path d="M 648 333 L 716 333 L 716 350 L 648 350 Z M 648 333 " clip-rule="nonzero"/></clipPath><clipPath id="8e4e117cd1"><path d="M 625.121094 125.601562 L 842.773438 403.835938 L 537.953125 642.28125 L 320.304688 364.046875 Z M 625.121094 125.601562 " clip-rule="nonzero"/></clipPath><clipPath id="ce25fb959e"><path d="M 625.121094 125.601562 L 842.773438 403.835938 L 537.953125 642.28125 L 320.304688 364.046875 Z M 625.121094 125.601562 " clip-rule="nonzero"/></clipPath><clipPath id="f76fd7b5a1"><path d="M 625.121094 125.601562 L 842.773438 403.835938 L 537.953125 642.28125 L 320.304688 364.046875 Z M 625.121094 125.601562 " clip-rule="nonzero"/></clipPath><clipPath id="aea9c14ef1"><path d="M 500.308594 294 L 626 294 L 626 474 L 500.308594 474 Z M 500.308594 294 " clip-rule="nonzero"/></clipPath></defs><rect x="-76.8" width="921.6" fill="#ffffff" y="-76.799999" height="921.599993" fill-opacity="1"/><rect x="-76.8" width="921.6" fill="#ffffff" y="-76.799999" height="921.599993" fill-opacity="1"/><g clip-path="url(#2193ecab98)"><path fill="#000000" d="M 168.867188 572.875 L 168.867188 405.300781 C 116.574219 390.375 78.234375 367.773438 53.808594 337.519531 C 29.410156 307.253906 17.203125 270.523438 17.203125 227.324219 C 17.203125 183.601562 31.011719 146.875 58.609375 117.132812 C 86.234375 87.410156 122.976562 70.285156 168.867188 65.746094 L 168.867188 26.148438 L 226.890625 26.148438 L 226.890625 65.746094 C 269.304688 70.816406 303.050781 85.28125 328.128906 109.136719 C 353.199219 133.003906 369.203125 164.933594 376.148438 204.929688 L 274.910156 218.132812 C 268.761719 186.679688 252.757812 165.339844 226.890625 154.140625 L 226.890625 310.519531 C 290.914062 327.859375 334.535156 350.320312 357.742188 377.902344 C 380.953125 405.507812 392.5625 440.902344 392.5625 484.09375 C 392.5625 532.359375 377.949219 573.023438 348.746094 606.074219 C 319.519531 639.144531 278.910156 659.410156 226.890625 666.867188 L 226.890625 741.648438 L 168.867188 741.648438 L 168.867188 668.859375 C 122.703125 663.261719 85.230469 646.066406 56.414062 617.265625 C 27.601562 588.46875 9.195312 547.816406 1.191406 495.285156 L 105.632812 484.089844 C 109.894531 505.429688 117.898438 523.824219 129.644531 539.28125 C 141.382812 554.75 154.457031 565.949219 168.867188 572.875 Z M 168.867188 152.929688 C 153.117188 158.273438 140.582031 167.332031 131.25 180.125 C 121.902344 192.921875 117.242188 207.066406 117.242188 222.519531 C 117.242188 236.65625 121.503906 249.78125 130.046875 261.90625 C 138.578125 274.046875 151.511719 283.855469 168.859375 291.308594 L 168.859375 152.929688 Z M 226.890625 578.472656 C 246.898438 574.746094 263.160156 565.480469 275.707031 550.671875 C 288.242188 535.882812 294.519531 518.480469 294.519531 498.488281 C 294.519531 480.628906 289.25 465.230469 278.703125 452.289062 C 268.167969 439.363281 250.894531 429.441406 226.890625 422.5 Z M 226.890625 578.472656 " fill-opacity="1" fill-rule="nonzero"/></g><g clip-path="url(#c63662a4ef)"><path stroke-linecap="butt" transform="matrix(0.75, 0, 0, 0.75, 0.000003, 26.150556)" fill="none" stroke-linejoin="miter" d="M -0.000004 0.00238401 L -0.000004 954.252431 L 524.843772 954.252431 L 524.843772 0.00238401 L -0.000004 0.00238401 " stroke="#ffffff" stroke-width="8" stroke-opacity="1" stroke-miterlimit="4"/></g><g clip-path="url(#24ba7bceb8)"><g clip-path="url(#823a623192)"><g clip-path="url(#a6bd8bce17)"><g clip-path="url(#05ccf085c8)"><path fill="#000000" d="M 429.121094 503.160156 C 427.570312 501.171875 426.0625 499.152344 424.59375 497.101562 C 423.128906 495.050781 421.707031 492.96875 420.328125 490.855469 C 418.953125 488.742188 417.621094 486.601562 416.335938 484.433594 C 415.050781 482.261719 413.8125 480.066406 412.621094 477.84375 C 411.429688 475.621094 410.285156 473.375 409.191406 471.105469 C 408.09375 468.832031 407.046875 466.539062 406.050781 464.222656 C 405.054688 461.90625 404.105469 459.570312 403.210938 457.214844 C 402.3125 454.859375 401.46875 452.484375 400.671875 450.089844 C 399.875 447.695312 399.132812 445.289062 398.441406 442.863281 C 397.75 440.4375 397.109375 438 396.519531 435.546875 C 395.933594 433.097656 395.398438 430.632812 394.917969 428.15625 C 394.433594 425.683594 394.003906 423.199219 393.628906 420.707031 C 393.253906 418.210938 392.933594 415.710938 392.664062 413.203125 C 392.394531 410.699219 392.179688 408.1875 392.019531 405.667969 C 391.855469 403.152344 391.75 400.636719 391.695312 398.113281 C 391.644531 395.59375 391.644531 393.074219 391.699219 390.550781 C 391.753906 388.03125 391.863281 385.511719 392.023438 382.996094 C 392.1875 380.480469 392.402344 377.96875 392.675781 375.460938 C 392.945312 372.957031 393.269531 370.457031 393.644531 367.960938 C 394.023438 365.46875 394.453125 362.984375 394.9375 360.511719 C 395.417969 358.039062 395.957031 355.574219 396.546875 353.121094 C 397.132812 350.671875 397.777344 348.234375 398.46875 345.808594 C 399.164062 343.386719 399.90625 340.976562 400.703125 338.585938 C 401.5 336.195312 402.347656 333.820312 403.246094 331.464844 C 404.144531 329.109375 405.09375 326.773438 406.089844 324.457031 C 407.089844 322.144531 408.136719 319.851562 409.234375 317.582031 C 410.332031 315.3125 411.476562 313.066406 412.667969 310.84375 C 413.859375 308.625 415.101562 306.429688 416.386719 304.261719 C 417.671875 302.09375 419.007812 299.953125 420.382812 297.84375 C 421.761719 295.734375 423.1875 293.652344 424.652344 291.601562 C 426.121094 289.550781 427.632812 287.535156 429.1875 285.550781 C 430.738281 283.566406 432.335938 281.613281 433.972656 279.699219 C 435.609375 277.78125 437.289062 275.898438 439.007812 274.054688 C 440.722656 272.210938 442.480469 270.402344 444.277344 268.632812 C 446.070312 266.863281 447.90625 265.132812 449.773438 263.441406 C 451.644531 261.75 453.546875 260.101562 455.488281 258.492188 C 457.429688 256.882812 459.402344 255.316406 461.410156 253.792969 C 463.417969 252.265625 465.457031 250.785156 467.527344 249.347656 C 469.597656 247.910156 471.699219 246.519531 473.832031 245.171875 C 475.960938 243.824219 478.121094 242.523438 480.304688 241.265625 C 482.492188 240.011719 484.703125 238.804688 486.941406 237.644531 C 489.179688 236.484375 491.441406 235.371094 493.726562 234.308594 C 496.015625 233.246094 498.320312 232.230469 500.652344 231.265625 C 502.980469 230.304688 505.328125 229.390625 507.695312 228.523438 C 510.066406 227.660156 512.453125 226.847656 514.855469 226.085938 C 517.257812 225.324219 519.675781 224.617188 522.109375 223.957031 C 524.542969 223.300781 526.988281 222.695312 529.449219 222.140625 C 531.910156 221.585938 534.378906 221.085938 536.859375 220.640625 C 539.339844 220.191406 541.832031 219.796875 544.328125 219.457031 C 546.828125 219.117188 549.332031 218.832031 551.839844 218.597656 C 554.351562 218.363281 556.867188 218.183594 559.382812 218.058594 C 561.902344 217.933594 564.421875 217.859375 566.941406 217.84375 C 569.464844 217.824219 571.984375 217.859375 574.503906 217.949219 C 577.023438 218.042969 579.539062 218.183594 582.054688 218.382812 C 584.566406 218.582031 587.074219 218.832031 589.578125 219.136719 C 592.082031 219.445312 594.574219 219.800781 597.0625 220.214844 C 599.550781 220.625 602.027344 221.09375 604.496094 221.609375 C 606.960938 222.128906 609.417969 222.699219 611.859375 223.324219 C 614.304688 223.945312 616.734375 224.621094 619.148438 225.351562 C 621.5625 226.078125 623.957031 226.855469 626.339844 227.6875 C 628.71875 228.515625 631.082031 229.398438 633.425781 230.328125 C 635.769531 231.261719 638.089844 232.242188 640.390625 233.273438 C 642.691406 234.304688 644.96875 235.382812 647.226562 236.511719 C 649.480469 237.640625 651.710938 238.816406 653.914062 240.039062 C 667.261719 247.449219 679.433594 256.445312 690.429688 267.027344 L 702.796875 254.230469 C 703.808594 253.175781 704.945312 252.28125 706.207031 251.542969 C 707.46875 250.800781 708.808594 250.25 710.222656 249.878906 C 711.640625 249.511719 713.078125 249.34375 714.539062 249.371094 C 716 249.402344 717.433594 249.632812 718.832031 250.058594 C 720.230469 250.484375 721.542969 251.09375 722.773438 251.882812 C 724.003906 252.671875 725.105469 253.617188 726.074219 254.710938 C 727.042969 255.808594 727.847656 257.011719 728.480469 258.332031 C 729.117188 259.648438 729.5625 261.027344 729.816406 262.46875 L 745.257812 349.003906 C 745.371094 349.621094 745.441406 350.242188 745.480469 350.867188 C 745.515625 351.492188 745.515625 352.117188 745.480469 352.738281 C 745.445312 353.363281 745.371094 353.984375 745.257812 354.601562 C 745.148438 355.21875 745.003906 355.824219 744.820312 356.421875 C 744.640625 357.019531 744.421875 357.605469 744.171875 358.179688 C 743.917969 358.753906 743.636719 359.308594 743.316406 359.847656 C 743 360.386719 742.652344 360.90625 742.273438 361.402344 C 741.894531 361.902344 741.488281 362.375 741.054688 362.824219 C 740.617188 363.277344 740.160156 363.699219 739.675781 364.09375 C 739.1875 364.488281 738.683594 364.855469 738.15625 365.191406 C 737.625 365.527344 737.082031 365.828125 736.515625 366.101562 C 735.953125 366.371094 735.375 366.605469 734.78125 366.808594 C 734.191406 367.011719 733.589844 367.179688 732.976562 367.308594 C 732.367188 367.441406 731.746094 367.535156 731.125 367.59375 C 730.503906 367.652344 729.878906 367.671875 729.253906 367.65625 C 728.625 367.640625 728.003906 367.589844 727.386719 367.5 L 640.382812 355.03125 C 638.359375 354.75 636.464844 354.097656 634.695312 353.078125 C 632.925781 352.058594 631.410156 350.746094 630.152344 349.136719 C 629.011719 347.675781 628.152344 346.066406 627.570312 344.304688 C 626.988281 342.546875 626.71875 340.738281 626.765625 338.886719 C 626.816406 336.90625 627.226562 335 627.996094 333.175781 C 628.765625 331.347656 629.839844 329.726562 631.222656 328.304688 L 646.039062 312.964844 C 606.105469 274.738281 542.832031 271.117188 498.722656 305.625 C 449.789062 343.902344 441.128906 414.867188 479.417969 463.816406 C 517.707031 512.765625 588.667969 521.445312 637.601562 483.164062 C 651.46875 472.320312 671.578125 474.777344 682.425781 488.648438 C 693.277344 502.519531 690.824219 522.628906 676.957031 533.476562 C 674.683594 535.257812 672.367188 536.984375 670.007812 538.652344 C 667.644531 540.320312 665.246094 541.925781 662.808594 543.476562 C 660.371094 545.027344 657.894531 546.515625 655.382812 547.945312 C 652.871094 549.375 650.324219 550.738281 647.746094 552.042969 C 645.167969 553.347656 642.558594 554.585938 639.917969 555.761719 C 637.277344 556.933594 634.613281 558.042969 631.917969 559.089844 C 629.222656 560.132812 626.503906 561.109375 623.761719 562.019531 C 621.019531 562.929688 618.257812 563.773438 615.472656 564.546875 C 612.6875 565.320312 609.886719 566.027344 607.070312 566.664062 C 604.25 567.300781 601.417969 567.867188 598.570312 568.367188 C 595.726562 568.863281 592.867188 569.292969 590 569.648438 C 587.132812 570.003906 584.257812 570.292969 581.375 570.507812 C 578.496094 570.722656 575.609375 570.871094 572.71875 570.945312 C 569.832031 571.019531 566.941406 571.019531 564.054688 570.953125 C 561.164062 570.886719 558.277344 570.746094 555.398438 570.535156 C 552.515625 570.328125 549.640625 570.046875 546.769531 569.695312 C 543.902344 569.34375 541.042969 568.925781 538.195312 568.433594 C 535.347656 567.941406 532.515625 567.378906 529.695312 566.75 C 526.871094 566.121094 524.070312 565.417969 521.285156 564.652344 C 518.496094 563.882812 515.730469 563.046875 512.988281 562.140625 C 510.242188 561.238281 507.519531 560.265625 504.824219 559.230469 C 502.125 558.191406 499.457031 557.085938 496.8125 555.917969 C 494.171875 554.75 491.558594 553.515625 488.976562 552.21875 C 486.390625 550.921875 483.84375 549.558594 481.328125 548.136719 C 478.8125 546.714844 476.332031 545.230469 473.890625 543.6875 C 471.445312 542.140625 469.042969 540.539062 466.679688 538.875 C 464.316406 537.210938 461.992188 535.492188 459.714844 533.714844 C 457.433594 531.9375 455.199219 530.105469 453.007812 528.222656 C 450.820312 526.335938 448.675781 524.394531 446.582031 522.402344 C 444.488281 520.410156 442.445312 518.367188 440.449219 516.277344 C 438.457031 514.183594 436.515625 512.042969 434.625 509.855469 C 432.738281 507.667969 430.902344 505.4375 429.121094 503.160156 Z M 429.121094 503.160156 " fill-opacity="1" fill-rule="nonzero"/></g></g></g></g><g clip-path="url(#f650c48e1c)"><g clip-path="url(#e7ad715293)"><g clip-path="url(#1849e6b07d)"><g clip-path="url(#6e2f290fe5)"><path fill="#ffd504" d="M 676.140625 493.566406 C 675.65625 492.949219 675.144531 492.355469 674.601562 491.789062 C 674.0625 491.222656 673.492188 490.679688 672.898438 490.167969 C 672.304688 489.65625 671.6875 489.175781 671.042969 488.726562 C 670.402344 488.273438 669.738281 487.855469 669.058594 487.46875 C 668.375 487.085938 667.675781 486.734375 666.957031 486.414062 C 666.238281 486.097656 665.507812 485.816406 664.761719 485.570312 C 664.015625 485.328125 663.261719 485.117188 662.496094 484.949219 C 661.730469 484.777344 660.960938 484.644531 660.179688 484.546875 C 659.402344 484.453125 658.621094 484.394531 657.835938 484.378906 C 657.050781 484.359375 656.269531 484.378906 655.488281 484.4375 C 654.707031 484.496094 653.925781 484.59375 653.15625 484.726562 C 652.382812 484.863281 651.617188 485.035156 650.863281 485.246094 C 650.105469 485.453125 649.363281 485.699219 648.632812 485.984375 C 647.902344 486.265625 647.183594 486.585938 646.484375 486.9375 C 645.785156 487.292969 645.101562 487.679688 644.441406 488.097656 C 643.777344 488.519531 643.140625 488.972656 642.523438 489.453125 C 590.121094 530.445312 514.132812 521.148438 473.132812 468.734375 C 432.128906 416.316406 441.402344 340.328125 493.800781 299.335938 C 543.734375 260.277344 615.082031 266.878906 657.167969 312.941406 L 636.964844 333.851562 C 632.5 338.46875 635.152344 346.207031 641.511719 347.117188 L 728.515625 359.589844 C 728.824219 359.632812 729.132812 359.65625 729.441406 359.664062 C 729.753906 359.671875 730.0625 359.664062 730.371094 359.632812 C 730.679688 359.605469 730.988281 359.558594 731.289062 359.492188 C 731.59375 359.425781 731.890625 359.34375 732.1875 359.242188 C 732.480469 359.140625 732.765625 359.023438 733.046875 358.890625 C 733.324219 358.757812 733.597656 358.605469 733.859375 358.4375 C 734.121094 358.273438 734.371094 358.089844 734.613281 357.894531 C 734.851562 357.699219 735.078125 357.488281 735.296875 357.265625 C 735.511719 357.042969 735.710938 356.808594 735.902344 356.558594 C 736.089844 356.3125 736.261719 356.054688 736.417969 355.789062 C 736.574219 355.519531 736.71875 355.246094 736.84375 354.960938 C 736.964844 354.675781 737.074219 354.386719 737.164062 354.089844 C 737.253906 353.792969 737.328125 353.492188 737.382812 353.1875 C 737.4375 352.878906 737.472656 352.574219 737.492188 352.261719 C 737.511719 351.953125 737.511719 351.644531 737.492188 351.332031 C 737.476562 351.023438 737.4375 350.714844 737.382812 350.410156 L 721.945312 263.878906 C 720.820312 257.554688 712.992188 255.164062 708.53125 259.785156 L 690.5 278.441406 C 687.769531 275.554688 684.9375 272.769531 682.007812 270.082031 C 679.078125 267.398438 676.058594 264.816406 672.949219 262.34375 C 669.835938 259.871094 666.640625 257.511719 663.363281 255.265625 C 660.085938 253.019531 656.730469 250.890625 653.300781 248.882812 C 649.875 246.875 646.378906 244.988281 642.816406 243.226562 C 639.253906 241.464844 635.632812 239.828125 631.957031 238.324219 C 628.277344 236.816406 624.554688 235.441406 620.777344 234.199219 C 617.003906 232.957031 613.1875 231.851562 609.335938 230.875 C 605.484375 229.902344 601.601562 229.070312 597.6875 228.371094 C 593.777344 227.671875 589.84375 227.113281 585.894531 226.695312 C 581.941406 226.273438 577.980469 225.992188 574.007812 225.855469 C 570.039062 225.714844 566.066406 225.714844 562.09375 225.855469 C 558.125 225.996094 554.164062 226.277344 550.210938 226.699219 C 546.261719 227.121094 542.328125 227.683594 538.417969 228.382812 C 534.507812 229.082031 530.625 229.917969 526.773438 230.890625 C 522.921875 231.867188 519.109375 232.976562 515.335938 234.21875 C 511.5625 235.464844 507.835938 236.839844 504.160156 238.347656 C 500.484375 239.855469 496.867188 241.488281 493.304688 243.253906 C 489.746094 245.015625 486.25 246.902344 482.824219 248.914062 C 479.398438 250.925781 476.046875 253.054688 472.769531 255.300781 C 469.492188 257.550781 466.300781 259.910156 463.191406 262.386719 C 460.082031 264.859375 457.066406 267.4375 454.136719 270.125 C 451.210938 272.8125 448.382812 275.601562 445.652344 278.488281 C 442.925781 281.375 440.300781 284.355469 437.78125 287.429688 C 435.265625 290.503906 432.855469 293.660156 430.5625 296.90625 C 428.265625 300.148438 426.089844 303.46875 424.03125 306.867188 C 421.96875 310.261719 420.03125 313.730469 418.21875 317.265625 C 416.402344 320.800781 414.714844 324.394531 413.152344 328.046875 C 411.59375 331.703125 410.164062 335.40625 408.863281 339.160156 C 407.566406 342.917969 406.402344 346.714844 405.371094 350.550781 C 404.34375 354.390625 403.449219 358.257812 402.691406 362.160156 C 401.9375 366.0625 401.320312 369.984375 400.839844 373.929688 C 400.335938 378.039062 399.984375 382.160156 399.785156 386.296875 C 399.582031 390.433594 399.535156 394.570312 399.640625 398.707031 C 399.746094 402.847656 400 406.976562 400.410156 411.097656 C 400.820312 415.21875 401.378906 419.316406 402.089844 423.398438 C 402.800781 427.476562 403.664062 431.523438 404.671875 435.539062 C 405.679688 439.554688 406.835938 443.527344 408.140625 447.460938 C 409.441406 451.390625 410.886719 455.265625 412.472656 459.089844 C 414.0625 462.914062 415.789062 466.675781 417.652344 470.375 C 419.519531 474.070312 421.519531 477.695312 423.648438 481.242188 C 425.78125 484.792969 428.042969 488.261719 430.429688 491.644531 C 432.816406 495.027344 435.324219 498.316406 437.957031 501.515625 C 440.585938 504.714844 443.328125 507.8125 446.1875 510.808594 C 449.046875 513.804688 452.011719 516.691406 455.082031 519.46875 C 458.152344 522.246094 461.320312 524.910156 464.589844 527.453125 C 467.855469 529.996094 471.210938 532.417969 474.65625 534.714844 C 478.101562 537.011719 481.625 539.179688 485.230469 541.214844 C 488.835938 543.253906 492.511719 545.15625 496.257812 546.921875 C 500 548.6875 503.804688 550.3125 507.671875 551.800781 C 511.535156 553.285156 515.449219 554.628906 519.414062 555.824219 C 523.378906 557.023438 527.378906 558.074219 531.421875 558.976562 C 535.460938 559.878906 539.53125 560.628906 543.625 561.234375 C 547.722656 561.835938 551.835938 562.285156 555.964844 562.585938 C 560.09375 562.886719 564.230469 563.03125 568.367188 563.027344 C 572.507812 563.023438 576.644531 562.863281 580.773438 562.554688 C 584.898438 562.242188 589.011719 561.78125 593.105469 561.167969 C 597.199219 560.554688 601.265625 559.792969 605.304688 558.878906 C 609.34375 557.96875 613.339844 556.90625 617.300781 555.699219 C 621.261719 554.492188 625.171875 553.140625 629.03125 551.644531 C 632.890625 550.148438 636.691406 548.511719 640.429688 546.738281 C 644.167969 544.960938 647.839844 543.050781 651.4375 541.003906 C 655.035156 538.957031 658.554688 536.78125 661.992188 534.476562 C 665.429688 532.167969 668.777344 529.738281 672.039062 527.1875 C 672.65625 526.703125 673.246094 526.191406 673.816406 525.648438 C 674.382812 525.109375 674.921875 524.539062 675.433594 523.945312 C 675.945312 523.351562 676.425781 522.734375 676.878906 522.089844 C 677.328125 521.449219 677.746094 520.789062 678.132812 520.105469 C 678.519531 519.421875 678.867188 518.722656 679.1875 518.003906 C 679.503906 517.285156 679.785156 516.554688 680.027344 515.8125 C 680.273438 515.066406 680.480469 514.308594 680.652344 513.542969 C 680.824219 512.78125 680.957031 512.007812 681.050781 511.230469 C 681.148438 510.449219 681.203125 509.667969 681.222656 508.882812 C 681.238281 508.101562 681.21875 507.316406 681.160156 506.535156 C 681.101562 505.753906 681.003906 504.976562 680.871094 504.203125 C 680.734375 503.429688 680.5625 502.664062 680.351562 501.910156 C 680.140625 501.152344 679.894531 500.410156 679.613281 499.679688 C 679.328125 498.949219 679.011719 498.230469 678.65625 497.53125 C 678.304688 496.832031 677.917969 496.148438 677.496094 495.488281 C 677.074219 494.824219 676.625 494.183594 676.140625 493.566406 Z M 676.140625 493.566406 " fill-opacity="1" fill-rule="nonzero"/></g></g></g></g><g clip-path="url(#3865ec5861)"><g clip-path="url(#79a115f830)"><g clip-path="url(#5a2ec7ad84)"><g clip-path="url(#7d48945536)"><path fill="#ffee76" d="M 413.738281 421.191406 C 413.410156 420.769531 413.199219 420.296875 413.109375 419.769531 C 412.367188 415.445312 411.796875 411.042969 411.425781 406.679688 C 410.96875 401.289062 410.789062 395.894531 410.890625 390.488281 C 410.992188 385.042969 411.375 379.617188 412.035156 374.214844 C 413.246094 364.183594 415.410156 354.363281 418.527344 344.753906 C 421.644531 335.148438 425.65625 325.929688 430.5625 317.101562 C 431.257812 315.84375 431.984375 314.578125 432.71875 313.339844 C 432.933594 312.972656 433.210938 312.664062 433.550781 312.410156 C 433.890625 312.15625 434.261719 311.976562 434.671875 311.871094 C 435.082031 311.765625 435.5 311.742188 435.917969 311.804688 C 436.335938 311.863281 436.730469 312 437.09375 312.214844 C 437.457031 312.433594 437.765625 312.707031 438.023438 313.046875 C 438.277344 313.386719 438.457031 313.761719 438.5625 314.171875 C 438.667969 314.582031 438.6875 314.996094 438.628906 315.414062 C 438.570312 315.835938 438.433594 316.226562 438.214844 316.589844 C 437.507812 317.78125 436.8125 318.996094 436.152344 320.199219 C 432.546875 326.710938 429.4375 333.453125 426.832031 340.425781 C 424.222656 347.398438 422.140625 354.523438 420.585938 361.804688 C 419.03125 369.085938 418.019531 376.4375 417.554688 383.871094 C 417.085938 391.300781 417.167969 398.722656 417.800781 406.140625 L 417.800781 406.171875 C 418.160156 410.347656 418.703125 414.558594 419.417969 418.695312 C 419.476562 419.046875 419.476562 419.398438 419.417969 419.746094 C 419.363281 420.097656 419.25 420.429688 419.082031 420.742188 C 418.914062 421.054688 418.699219 421.332031 418.4375 421.574219 C 418.175781 421.816406 417.882812 422.007812 417.558594 422.152344 C 417.234375 422.296875 416.894531 422.382812 416.539062 422.414062 C 416.1875 422.445312 415.835938 422.414062 415.492188 422.328125 C 415.148438 422.242188 414.824219 422.105469 414.527344 421.910156 C 414.230469 421.714844 413.972656 421.480469 413.75 421.199219 Z M 439.988281 306.082031 C 439.558594 305.53125 439.332031 304.90625 439.3125 304.207031 C 439.289062 303.492188 439.484375 302.84375 439.902344 302.261719 C 440.09375 301.988281 440.328125 301.753906 440.59375 301.554688 C 440.863281 301.355469 441.15625 301.199219 441.472656 301.09375 C 441.789062 300.984375 442.113281 300.929688 442.449219 300.921875 C 442.78125 300.917969 443.109375 300.964844 443.429688 301.0625 C 443.75 301.160156 444.046875 301.300781 444.324219 301.492188 C 444.597656 301.683594 444.835938 301.914062 445.039062 302.179688 C 445.242188 302.445312 445.398438 302.734375 445.511719 303.050781 C 445.625 303.367188 445.683594 303.691406 445.695312 304.023438 C 445.71875 304.738281 445.519531 305.386719 445.101562 305.96875 C 444.957031 306.171875 444.792969 306.355469 444.605469 306.515625 C 444.417969 306.679688 444.214844 306.820312 443.996094 306.9375 C 443.777344 307.050781 443.546875 307.140625 443.304688 307.203125 C 443.066406 307.265625 442.820312 307.300781 442.574219 307.304688 C 442.324219 307.3125 442.078125 307.289062 441.835938 307.234375 C 441.59375 307.183594 441.359375 307.105469 441.136719 307 C 440.910156 306.890625 440.703125 306.761719 440.507812 306.605469 C 440.3125 306.453125 440.140625 306.277344 439.988281 306.082031 Z M 515.148438 249.984375 C 514.929688 249.703125 514.761719 249.394531 514.640625 249.054688 C 514.503906 248.65625 514.449219 248.242188 514.476562 247.820312 C 514.503906 247.398438 514.609375 246.996094 514.796875 246.617188 C 514.984375 246.234375 515.234375 245.90625 515.550781 245.625 C 515.871094 245.34375 516.226562 245.136719 516.628906 245 C 519.894531 243.878906 523.253906 242.851562 526.617188 241.945312 C 527.5 241.707031 528.398438 241.472656 529.28125 241.25 C 538.628906 238.898438 548.109375 237.425781 557.730469 236.832031 C 567.351562 236.238281 576.945312 236.535156 586.511719 237.71875 C 593.097656 238.523438 599.605469 239.738281 606.039062 241.359375 C 612.429688 242.972656 618.695312 244.984375 624.832031 247.394531 C 625.214844 247.554688 625.558594 247.785156 625.855469 248.078125 C 626.152344 248.375 626.378906 248.714844 626.542969 249.097656 C 626.707031 249.484375 626.792969 249.882812 626.796875 250.300781 C 626.800781 250.71875 626.730469 251.125 626.578125 251.511719 C 626.421875 251.902344 626.203125 252.246094 625.914062 252.550781 C 625.625 252.851562 625.289062 253.089844 624.910156 253.257812 C 624.527344 253.429688 624.128906 253.523438 623.710938 253.535156 C 623.292969 253.550781 622.886719 253.484375 622.496094 253.339844 C 615.238281 250.496094 607.808594 248.230469 600.203125 246.539062 C 592.59375 244.847656 584.902344 243.753906 577.128906 243.253906 C 569.351562 242.753906 561.585938 242.855469 553.824219 243.558594 C 546.066406 244.261719 538.40625 245.554688 530.847656 247.445312 C 529.988281 247.664062 529.132812 247.882812 528.285156 248.117188 C 525.0625 248.984375 521.839844 249.972656 518.703125 251.046875 C 518.386719 251.152344 518.066406 251.210938 517.734375 251.214844 C 517.402344 251.222656 517.078125 251.179688 516.757812 251.085938 C 516.441406 250.992188 516.144531 250.851562 515.871094 250.664062 C 515.597656 250.476562 515.359375 250.253906 515.152344 249.992188 Z M 515.148438 249.984375 " fill-opacity="1" fill-rule="nonzero"/></g></g></g></g><g clip-path="url(#81f749548f)"><g clip-path="url(#a6a935de0d)"><g clip-path="url(#02e6f4199a)"><g clip-path="url(#c8f3644b88)"><path fill="#ffbe08" d="M 489.488281 302.875 C 487.976562 303.949219 486.480469 305.066406 485 306.222656 C 432.597656 347.210938 423.328125 423.203125 464.328125 475.617188 C 505.332031 528.035156 581.320312 537.332031 633.71875 496.339844 C 634.3125 495.875 634.925781 495.441406 635.558594 495.039062 C 636.191406 494.632812 636.84375 494.257812 637.511719 493.914062 C 638.183594 493.570312 638.867188 493.257812 639.5625 492.980469 C 640.261719 492.699219 640.972656 492.453125 641.695312 492.242188 C 642.414062 492.03125 643.144531 491.851562 643.882812 491.707031 C 644.621094 491.566406 645.363281 491.457031 646.113281 491.382812 C 646.863281 491.308594 647.613281 491.269531 648.363281 491.269531 C 649.117188 491.265625 649.867188 491.296875 650.617188 491.367188 C 651.367188 491.433594 652.109375 491.535156 652.847656 491.675781 C 653.589844 491.8125 654.320312 491.984375 655.042969 492.191406 C 655.765625 492.398438 656.476562 492.640625 657.179688 492.914062 C 657.878906 493.1875 658.566406 493.492188 659.238281 493.832031 C 659.910156 494.171875 660.5625 494.539062 661.199219 494.941406 C 661.835938 495.339844 662.453125 495.769531 663.050781 496.226562 C 663.648438 496.6875 664.21875 497.171875 664.769531 497.683594 C 665.324219 498.195312 665.847656 498.734375 666.347656 499.292969 C 666.847656 499.855469 667.320312 500.441406 667.765625 501.046875 C 668.210938 501.652344 668.628906 502.277344 669.011719 502.925781 C 669.398438 503.570312 669.753906 504.234375 670.078125 504.910156 C 670.402344 505.589844 670.695312 506.28125 670.953125 506.988281 C 671.210938 507.695312 671.4375 508.414062 671.628906 509.140625 C 671.820312 509.867188 671.976562 510.601562 672.097656 511.34375 C 672.21875 512.085938 672.304688 512.832031 672.355469 513.585938 C 672.410156 514.335938 672.425781 515.085938 672.40625 515.835938 C 672.386719 516.589844 672.332031 517.339844 672.242188 518.085938 C 672.152344 518.832031 672.027344 519.574219 671.867188 520.308594 C 671.707031 521.042969 671.515625 521.769531 671.285156 522.484375 C 671.058594 523.203125 670.796875 523.90625 670.503906 524.597656 C 670.210938 525.292969 669.882812 525.96875 669.523438 526.628906 C 669.167969 527.292969 668.777344 527.933594 668.359375 528.558594 C 667.941406 529.183594 667.492188 529.789062 667.019531 530.371094 C 666.542969 530.953125 666.039062 531.511719 665.511719 532.046875 C 667.71875 530.484375 669.894531 528.867188 672.035156 527.203125 C 672.652344 526.71875 673.246094 526.207031 673.8125 525.664062 C 674.382812 525.121094 674.921875 524.554688 675.433594 523.960938 C 675.945312 523.367188 676.425781 522.746094 676.875 522.105469 C 677.328125 521.464844 677.746094 520.800781 678.128906 520.117188 C 678.515625 519.4375 678.867188 518.734375 679.183594 518.019531 C 679.5 517.300781 679.78125 516.570312 680.027344 515.824219 C 680.273438 515.078125 680.480469 514.324219 680.652344 513.558594 C 680.820312 512.792969 680.953125 512.023438 681.050781 511.242188 C 681.144531 510.464844 681.203125 509.683594 681.21875 508.898438 C 681.238281 508.113281 681.21875 507.332031 681.160156 506.550781 C 681.101562 505.765625 681.003906 504.988281 680.867188 504.21875 C 680.734375 503.445312 680.5625 502.679688 680.351562 501.925781 C 680.140625 501.167969 679.894531 500.425781 679.609375 499.691406 C 679.328125 498.960938 679.007812 498.246094 678.65625 497.546875 C 678.300781 496.84375 677.914062 496.164062 677.496094 495.5 C 677.074219 494.839844 676.621094 494.199219 676.136719 493.582031 C 675.65625 492.964844 675.144531 492.371094 674.601562 491.804688 C 674.058594 491.234375 673.492188 490.695312 672.898438 490.183594 C 672.300781 489.671875 671.683594 489.191406 671.042969 488.738281 C 670.402344 488.289062 669.738281 487.871094 669.054688 487.484375 C 668.371094 487.097656 667.671875 486.746094 666.953125 486.429688 C 666.238281 486.113281 665.507812 485.832031 664.761719 485.585938 C 664.015625 485.339844 663.261719 485.132812 662.496094 484.960938 C 661.730469 484.789062 660.957031 484.65625 660.179688 484.5625 C 659.398438 484.46875 658.617188 484.410156 657.835938 484.390625 C 657.050781 484.371094 656.269531 484.394531 655.484375 484.453125 C 654.703125 484.511719 653.925781 484.605469 653.152344 484.742188 C 652.378906 484.875 651.617188 485.050781 650.859375 485.257812 C 650.105469 485.46875 649.363281 485.714844 648.628906 486 C 647.898438 486.28125 647.183594 486.597656 646.484375 486.953125 C 645.78125 487.304688 645.101562 487.691406 644.441406 488.113281 C 643.777344 488.535156 643.136719 488.984375 642.519531 489.46875 C 590.121094 530.457031 514.132812 521.164062 473.128906 468.746094 C 433.28125 417.792969 440.921875 344.582031 489.488281 302.875 Z M 489.488281 302.875 " fill-opacity="1" fill-rule="nonzero"/></g></g></g></g><g clip-path="url(#7385a9fb62)"><g clip-path="url(#227e7a2925)"><g clip-path="url(#895deed502)"><g clip-path="url(#521fbc439e)"><path fill="#ffbe08" d="M 704.109375 264.359375 C 708.089844 263.722656 712.332031 266.230469 713.140625 270.761719 L 728.585938 357.300781 C 728.722656 358.066406 728.746094 358.835938 728.660156 359.609375 C 728.964844 359.648438 729.269531 359.667969 729.578125 359.667969 C 729.882812 359.671875 730.191406 359.65625 730.496094 359.625 C 730.800781 359.589844 731.105469 359.539062 731.402344 359.46875 C 731.703125 359.402344 732 359.316406 732.289062 359.210938 C 732.578125 359.109375 732.859375 358.988281 733.136719 358.851562 C 733.410156 358.714844 733.675781 358.5625 733.933594 358.394531 C 734.191406 358.226562 734.4375 358.046875 734.675781 357.847656 C 734.910156 357.652344 735.136719 357.441406 735.347656 357.21875 C 735.558594 356.996094 735.757812 356.761719 735.941406 356.515625 C 736.125 356.269531 736.292969 356.011719 736.449219 355.746094 C 736.601562 355.480469 736.742188 355.207031 736.863281 354.925781 C 736.984375 354.644531 737.089844 354.355469 737.179688 354.0625 C 737.265625 353.765625 737.335938 353.46875 737.390625 353.164062 C 737.445312 352.863281 737.480469 352.558594 737.496094 352.25 C 737.515625 351.945312 737.515625 351.636719 737.496094 351.328125 C 737.476562 351.023438 737.441406 350.71875 737.386719 350.414062 L 721.945312 263.878906 C 720.820312 257.554688 712.992188 255.164062 708.53125 259.785156 Z M 704.109375 264.359375 " fill-opacity="1" fill-rule="nonzero"/></g></g></g></g><g clip-path="url(#90511de332)"><g clip-path="url(#ad350d0e78)"><g clip-path="url(#a651ea5299)"><g clip-path="url(#f6c3f46ee2)"><path fill="#ffbe08" d="M 515.332031 238.507812 C 520.566406 237.097656 525.859375 235.945312 531.203125 235.046875 C 536.550781 234.148438 541.925781 233.507812 547.335938 233.125 C 552.742188 232.742188 558.15625 232.621094 563.578125 232.757812 C 568.996094 232.898438 574.398438 233.296875 579.777344 233.953125 C 585.160156 234.613281 590.496094 235.527344 595.792969 236.699219 C 601.085938 237.871094 606.308594 239.292969 611.46875 240.96875 C 616.625 242.644531 621.6875 244.5625 626.660156 246.722656 C 631.632812 248.882812 636.492188 251.28125 641.234375 253.910156 C 656.328125 262.289062 671.121094 273.886719 682.929688 286.386719 L 690.664062 278.382812 C 679.105469 266.367188 664.671875 255.152344 650.03125 247.019531 C 646.4375 245.019531 642.769531 243.152344 639.039062 241.417969 C 635.304688 239.6875 631.511719 238.09375 627.664062 236.640625 C 623.8125 235.1875 619.914062 233.875 615.96875 232.707031 C 612.023438 231.539062 608.039062 230.515625 604.019531 229.636719 C 600 228.761719 595.949219 228.03125 591.875 227.453125 C 587.800781 226.871094 583.710938 226.441406 579.605469 226.164062 C 575.5 225.882812 571.390625 225.753906 567.277344 225.773438 C 563.160156 225.792969 559.054688 225.964844 554.949219 226.289062 C 550.847656 226.609375 546.761719 227.082031 542.695312 227.703125 C 538.628906 228.324219 534.589844 229.09375 530.578125 230.011719 C 526.566406 230.929688 522.59375 231.992188 518.660156 233.203125 C 514.726562 234.410156 510.84375 235.761719 507.011719 237.253906 C 503.175781 238.75 499.402344 240.378906 495.6875 242.152344 C 491.972656 243.921875 488.328125 245.824219 484.753906 247.863281 C 481.179688 249.898438 477.683594 252.0625 474.269531 254.359375 C 470.851562 256.652344 467.523438 259.066406 464.285156 261.605469 C 462.816406 262.753906 461.367188 263.925781 459.941406 265.121094 C 468.273438 259.011719 477.09375 253.722656 486.402344 249.246094 C 495.714844 244.773438 505.355469 241.195312 515.332031 238.507812 Z M 515.332031 238.507812 " fill-opacity="1" fill-rule="nonzero"/></g></g></g></g><g clip-path="url(#c18aaa9fc1)"><g clip-path="url(#8e4e117cd1)"><g clip-path="url(#ce25fb959e)"><g clip-path="url(#f76fd7b5a1)"><path fill="#ffee76" d="M 649.628906 338.863281 C 649.222656 338.347656 649 337.761719 648.957031 337.105469 C 648.914062 336.449219 649.058594 335.839844 649.390625 335.273438 C 649.726562 334.710938 650.1875 334.285156 650.78125 334.007812 C 651.375 333.726562 651.996094 333.640625 652.644531 333.742188 L 713.25 343.429688 C 713.671875 343.492188 714.066406 343.632812 714.433594 343.851562 C 714.800781 344.070312 715.113281 344.351562 715.367188 344.699219 C 715.621094 345.042969 715.796875 345.421875 715.898438 345.839844 C 716 346.253906 716.015625 346.671875 715.949219 347.097656 C 715.882812 347.519531 715.734375 347.910156 715.511719 348.277344 C 715.285156 348.640625 715 348.945312 714.648438 349.195312 C 714.300781 349.441406 713.917969 349.613281 713.5 349.707031 C 713.082031 349.800781 712.664062 349.8125 712.242188 349.738281 L 651.640625 340.046875 C 650.8125 339.917969 650.144531 339.523438 649.628906 338.863281 Z M 649.628906 338.863281 " fill-opacity="1" fill-rule="nonzero"/></g></g></g></g><g clip-path="url(#aea9c14ef1)"><path fill="#74cc00" d="M 562.988281 294.472656 C 561.96875 294.488281 560.960938 294.601562 559.964844 294.816406 C 558.96875 295.027344 558.003906 295.335938 557.066406 295.742188 C 556.128906 296.144531 555.242188 296.636719 554.402344 297.214844 C 553.5625 297.792969 552.789062 298.445312 552.078125 299.175781 C 551.367188 299.910156 550.734375 300.703125 550.179688 301.558594 C 549.625 302.414062 549.160156 303.3125 548.785156 304.261719 C 548.40625 305.207031 548.125 306.183594 547.941406 307.183594 C 547.757812 308.1875 547.671875 309.199219 547.683594 310.21875 L 547.683594 341.28125 L 516.621094 341.28125 C 516.105469 341.273438 515.59375 341.292969 515.082031 341.335938 C 514.570312 341.378906 514.0625 341.449219 513.558594 341.542969 C 513.054688 341.636719 512.554688 341.753906 512.0625 341.898438 C 511.570312 342.042969 511.085938 342.210938 510.609375 342.402344 C 510.132812 342.59375 509.664062 342.808594 509.210938 343.042969 C 508.753906 343.28125 508.3125 343.542969 507.882812 343.824219 C 507.453125 344.105469 507.039062 344.40625 506.640625 344.730469 C 506.242188 345.050781 505.859375 345.394531 505.492188 345.753906 C 505.128906 346.113281 504.78125 346.492188 504.453125 346.886719 C 504.125 347.28125 503.816406 347.691406 503.53125 348.117188 C 503.242188 348.542969 502.976562 348.980469 502.734375 349.433594 C 502.488281 349.882812 502.269531 350.347656 502.070312 350.820312 C 501.871094 351.292969 501.695312 351.773438 501.546875 352.265625 C 501.398438 352.757812 501.269531 353.253906 501.167969 353.757812 C 501.070312 354.261719 500.992188 354.769531 500.941406 355.277344 C 500.890625 355.789062 500.867188 356.300781 500.867188 356.816406 C 500.867188 357.328125 500.890625 357.839844 500.941406 358.351562 C 500.992188 358.863281 501.070312 359.367188 501.167969 359.871094 C 501.269531 360.375 501.398438 360.871094 501.546875 361.363281 C 501.695312 361.855469 501.871094 362.335938 502.070312 362.808594 C 502.269531 363.285156 502.488281 363.746094 502.734375 364.199219 C 502.976562 364.648438 503.242188 365.089844 503.53125 365.511719 C 503.816406 365.9375 504.125 366.347656 504.453125 366.742188 C 504.78125 367.136719 505.128906 367.515625 505.492188 367.875 C 505.859375 368.238281 506.242188 368.578125 506.640625 368.902344 C 507.039062 369.222656 507.453125 369.523438 507.882812 369.804688 C 508.3125 370.089844 508.753906 370.347656 509.210938 370.585938 C 509.664062 370.824219 510.132812 371.039062 510.609375 371.230469 C 511.085938 371.421875 511.570312 371.585938 512.0625 371.730469 C 512.554688 371.875 513.054688 371.992188 513.558594 372.085938 C 514.0625 372.179688 514.570312 372.25 515.082031 372.292969 C 515.59375 372.335938 516.105469 372.355469 516.621094 372.347656 L 547.683594 372.347656 L 547.683594 403.410156 C 547.675781 403.925781 547.695312 404.4375 547.738281 404.949219 C 547.78125 405.460938 547.851562 405.96875 547.945312 406.472656 C 548.039062 406.976562 548.15625 407.476562 548.300781 407.96875 C 548.445312 408.460938 548.613281 408.949219 548.804688 409.421875 C 548.996094 409.898438 549.207031 410.367188 549.445312 410.820312 C 549.683594 411.277344 549.945312 411.71875 550.226562 412.148438 C 550.507812 412.578125 550.808594 412.992188 551.132812 413.390625 C 551.453125 413.789062 551.792969 414.171875 552.15625 414.539062 C 552.515625 414.902344 552.894531 415.25 553.289062 415.578125 C 553.683594 415.90625 554.09375 416.214844 554.519531 416.5 C 554.945312 416.789062 555.382812 417.054688 555.832031 417.300781 C 556.285156 417.542969 556.746094 417.765625 557.222656 417.960938 C 557.695312 418.160156 558.175781 418.335938 558.667969 418.484375 C 559.160156 418.636719 559.65625 418.761719 560.160156 418.863281 C 560.664062 418.960938 561.167969 419.039062 561.679688 419.089844 C 562.191406 419.140625 562.703125 419.164062 563.214844 419.164062 C 563.730469 419.164062 564.242188 419.140625 564.753906 419.089844 C 565.265625 419.039062 565.769531 418.960938 566.273438 418.863281 C 566.777344 418.761719 567.273438 418.636719 567.765625 418.484375 C 568.257812 418.335938 568.738281 418.160156 569.210938 417.960938 C 569.6875 417.765625 570.148438 417.542969 570.601562 417.300781 C 571.050781 417.054688 571.488281 416.789062 571.914062 416.5 C 572.339844 416.214844 572.75 415.90625 573.144531 415.578125 C 573.539062 415.25 573.917969 414.902344 574.277344 414.539062 C 574.640625 414.171875 574.980469 413.789062 575.300781 413.390625 C 575.625 412.992188 575.925781 412.578125 576.207031 412.148438 C 576.488281 411.71875 576.75 411.277344 576.988281 410.820312 C 577.222656 410.367188 577.4375 409.898438 577.628906 409.421875 C 577.820312 408.949219 577.988281 408.460938 578.132812 407.96875 C 578.277344 407.476562 578.394531 406.976562 578.488281 406.472656 C 578.582031 405.96875 578.652344 405.460938 578.695312 404.949219 C 578.738281 404.4375 578.757812 403.925781 578.75 403.410156 L 578.75 372.347656 L 609.8125 372.347656 C 610.328125 372.355469 610.839844 372.335938 611.351562 372.292969 C 611.863281 372.25 612.371094 372.179688 612.875 372.085938 C 613.378906 371.992188 613.878906 371.875 614.371094 371.730469 C 614.863281 371.585938 615.347656 371.421875 615.824219 371.230469 C 616.300781 371.039062 616.769531 370.824219 617.222656 370.585938 C 617.679688 370.347656 618.121094 370.089844 618.550781 369.804688 C 618.980469 369.523438 619.394531 369.222656 619.792969 368.902344 C 620.191406 368.578125 620.574219 368.238281 620.941406 367.875 C 621.304688 367.515625 621.652344 367.136719 621.980469 366.742188 C 622.308594 366.347656 622.617188 365.9375 622.902344 365.511719 C 623.191406 365.089844 623.457031 364.648438 623.699219 364.199219 C 623.945312 363.746094 624.164062 363.285156 624.363281 362.808594 C 624.5625 362.335938 624.734375 361.855469 624.886719 361.363281 C 625.035156 360.871094 625.164062 360.375 625.261719 359.871094 C 625.363281 359.367188 625.441406 358.863281 625.492188 358.351562 C 625.542969 357.839844 625.566406 357.328125 625.566406 356.816406 C 625.566406 356.300781 625.542969 355.789062 625.492188 355.277344 C 625.441406 354.769531 625.363281 354.261719 625.261719 353.757812 C 625.164062 353.253906 625.035156 352.757812 624.886719 352.265625 C 624.734375 351.773438 624.5625 351.292969 624.363281 350.820312 C 624.164062 350.347656 623.945312 349.882812 623.699219 349.433594 C 623.457031 348.980469 623.191406 348.542969 622.902344 348.117188 C 622.617188 347.691406 622.308594 347.28125 621.980469 346.886719 C 621.652344 346.492188 621.304688 346.113281 620.941406 345.753906 C 620.574219 345.394531 620.191406 345.050781 619.792969 344.730469 C 619.394531 344.40625 618.980469 344.105469 618.550781 343.824219 C 618.121094 343.542969 617.679688 343.28125 617.222656 343.042969 C 616.769531 342.808594 616.300781 342.59375 615.824219 342.402344 C 615.347656 342.210938 614.863281 342.042969 614.371094 341.898438 C 613.878906 341.753906 613.378906 341.636719 612.875 341.542969 C 612.371094 341.449219 611.863281 341.378906 611.351562 341.335938 C 610.839844 341.292969 610.328125 341.273438 609.8125 341.28125 L 578.75 341.28125 L 578.75 310.21875 C 578.757812 309.699219 578.738281 309.183594 578.691406 308.667969 C 578.648438 308.152344 578.578125 307.636719 578.480469 307.128906 C 578.386719 306.621094 578.265625 306.117188 578.117188 305.621094 C 577.972656 305.125 577.800781 304.636719 577.605469 304.15625 C 577.410156 303.675781 577.195312 303.207031 576.953125 302.75 C 576.710938 302.289062 576.445312 301.847656 576.160156 301.414062 C 575.871094 300.984375 575.566406 300.566406 575.238281 300.164062 C 574.910156 299.765625 574.5625 299.382812 574.195312 299.015625 C 573.828125 298.648438 573.445312 298.304688 573.042969 297.976562 C 572.644531 297.648438 572.226562 297.339844 571.792969 297.054688 C 571.363281 296.769531 570.917969 296.503906 570.460938 296.261719 C 570 296.023438 569.53125 295.804688 569.050781 295.609375 C 568.574219 295.414062 568.085938 295.246094 567.585938 295.097656 C 567.089844 294.953125 566.585938 294.832031 566.078125 294.738281 C 565.570312 294.640625 565.054688 294.570312 564.539062 294.527344 C 564.023438 294.484375 563.507812 294.464844 562.988281 294.472656 Z M 516.621094 442.242188 C 516.105469 442.234375 515.59375 442.253906 515.082031 442.296875 C 514.570312 442.339844 514.0625 442.410156 513.558594 442.503906 C 513.054688 442.597656 512.554688 442.714844 512.0625 442.859375 C 511.570312 443.003906 511.085938 443.171875 510.609375 443.363281 C 510.132812 443.554688 509.664062 443.769531 509.210938 444.003906 C 508.753906 444.242188 508.3125 444.503906 507.882812 444.785156 C 507.453125 445.066406 507.039062 445.367188 506.640625 445.691406 C 506.242188 446.011719 505.859375 446.355469 505.492188 446.714844 C 505.128906 447.074219 504.78125 447.453125 504.453125 447.847656 C 504.125 448.242188 503.816406 448.652344 503.53125 449.078125 C 503.242188 449.503906 502.976562 449.941406 502.734375 450.390625 C 502.488281 450.84375 502.269531 451.308594 502.070312 451.78125 C 501.871094 452.253906 501.699219 452.734375 501.546875 453.226562 C 501.398438 453.71875 501.269531 454.214844 501.171875 454.71875 C 501.070312 455.222656 500.992188 455.726562 500.941406 456.238281 C 500.890625 456.75 500.867188 457.261719 500.867188 457.777344 C 500.867188 458.289062 500.890625 458.800781 500.941406 459.3125 C 500.992188 459.824219 501.070312 460.328125 501.171875 460.832031 C 501.269531 461.335938 501.398438 461.832031 501.546875 462.324219 C 501.699219 462.816406 501.871094 463.296875 502.070312 463.769531 C 502.269531 464.246094 502.488281 464.707031 502.734375 465.160156 C 502.976562 465.609375 503.242188 466.046875 503.53125 466.472656 C 503.816406 466.898438 504.125 467.308594 504.453125 467.703125 C 504.78125 468.097656 505.128906 468.476562 505.492188 468.835938 C 505.859375 469.199219 506.242188 469.539062 506.640625 469.859375 C 507.039062 470.183594 507.453125 470.484375 507.882812 470.765625 C 508.3125 471.046875 508.753906 471.308594 509.210938 471.546875 C 509.664062 471.785156 510.132812 471.996094 510.609375 472.1875 C 511.085938 472.378906 511.570312 472.546875 512.0625 472.691406 C 512.554688 472.835938 513.054688 472.953125 513.558594 473.046875 C 514.0625 473.140625 514.570312 473.210938 515.082031 473.253906 C 515.59375 473.296875 516.105469 473.316406 516.621094 473.308594 L 609.8125 473.308594 C 610.328125 473.316406 610.839844 473.296875 611.351562 473.253906 C 611.863281 473.210938 612.371094 473.140625 612.875 473.046875 C 613.378906 472.953125 613.878906 472.835938 614.371094 472.691406 C 614.863281 472.546875 615.347656 472.378906 615.824219 472.1875 C 616.300781 471.996094 616.765625 471.785156 617.222656 471.546875 C 617.675781 471.308594 618.121094 471.046875 618.550781 470.765625 C 618.976562 470.484375 619.394531 470.183594 619.792969 469.859375 C 620.191406 469.539062 620.574219 469.199219 620.941406 468.835938 C 621.304688 468.476562 621.652344 468.097656 621.980469 467.703125 C 622.308594 467.308594 622.617188 466.898438 622.902344 466.472656 C 623.191406 466.046875 623.457031 465.609375 623.699219 465.160156 C 623.945312 464.707031 624.164062 464.246094 624.363281 463.769531 C 624.5625 463.296875 624.734375 462.816406 624.886719 462.324219 C 625.035156 461.832031 625.164062 461.335938 625.261719 460.832031 C 625.363281 460.328125 625.441406 459.824219 625.492188 459.3125 C 625.542969 458.800781 625.566406 458.289062 625.566406 457.777344 C 625.566406 457.261719 625.542969 456.75 625.492188 456.238281 C 625.441406 455.726562 625.363281 455.222656 625.261719 454.71875 C 625.164062 454.214844 625.035156 453.71875 624.886719 453.226562 C 624.734375 452.734375 624.5625 452.253906 624.363281 451.78125 C 624.164062 451.308594 623.945312 450.84375 623.699219 450.390625 C 623.457031 449.941406 623.191406 449.503906 622.902344 449.078125 C 622.617188 448.652344 622.308594 448.242188 621.980469 447.847656 C 621.652344 447.453125 621.304688 447.074219 620.941406 446.714844 C 620.574219 446.355469 620.191406 446.011719 619.792969 445.691406 C 619.394531 445.367188 618.976562 445.066406 618.550781 444.785156 C 618.121094 444.503906 617.675781 444.242188 617.222656 444.003906 C 616.765625 443.769531 616.300781 443.554688 615.824219 443.363281 C 615.347656 443.171875 614.863281 443.003906 614.371094 442.859375 C 613.878906 442.714844 613.378906 442.597656 612.875 442.503906 C 612.371094 442.410156 611.863281 442.339844 611.351562 442.296875 C 610.839844 442.253906 610.328125 442.234375 609.8125 442.242188 Z M 516.621094 442.242188 " fill-opacity="1" fill-rule="nonzero"/></g></svg>